<svg id="Layer_1" data-name="Layer 1" xmlns="http://www.w3.org/2000/svg" viewBox="0 0 1896 321.75" width="170" height="35">
    <defs>
        <style>
            .cls-1{fill:#ffcc27;}
            .cls-2{fill:#fff;}
        </style>
    </defs>
    <title>
        serenity_logo2  
    </title>
    <path class="cls-1" d="M465.63,1360.62q0,39.57-47.9,39.57a100.17,100.17,0,0,1-23.89-2.48,44.43,44.43,0,0,1-16.48-7.44,29.43,29.43,0,0,1-9.54-12.34,45.16,45.16,0,0,1-3-17.3v-49.24h23.66v49.24a24.61,24.61,0,0,0,1.15,8.09,10.22,10.22,0,0,0,4.31,5.29,22.89,22.89,0,0,0,8.9,2.87,105.74,105.74,0,0,0,14.93.85,60.24,60.24,0,0,0,11.49-.91,17.81,17.81,0,0,0,7.35-3,11.65,11.65,0,0,0,4-5.35,22.7,22.7,0,0,0,1.21-7.84v-49.24h23.89Z" transform="translate(-33 -1078.6)"/>
    <polygon class="cls-1" points="687.19 232.61 633.42 232.61 609.29 232.61 609.29 256.24 633.42 256.24 648.51 256.24 648.51 321.59 672.61 321.59 672.61 256.24 687.19 256.24 711.31 256.24 711.31 232.61 687.19 232.61"/>
    <path class="cls-1" d="M128.75,1352.88q-7.43-6.06-21.7-6.06H64.81q-4.18,0-6.21-1.4t-2-4.86q0-3.46,2-4.79t6.21-1.33h71.61v-23.17H66.67a50.58,50.58,0,0,0-15.14,2,27.71,27.71,0,0,0-10.33,5.59,21.8,21.8,0,0,0-5.92,8.72A32.32,32.32,0,0,0,33.36,1339a30,30,0,0,0,1.74,10.45,20.39,20.39,0,0,0,5.34,8.05,25,25,0,0,0,9,5.19,40.25,40.25,0,0,0,13,1.87h42.24q4.29,0,6.27,1.46t2,4.93q0,3.46-2,5t-6.27,1.53H33.08v22.9h69.79a50.6,50.6,0,0,0,15.14-2,27.25,27.25,0,0,0,10.39-5.73,21.73,21.73,0,0,0,5.92-9.19,38,38,0,0,0,1.86-12.25Q136.18,1358.94,128.75,1352.88Z" transform="translate(-33 -1078.6)"/>
    <path class="cls-1" d="M281.07,1336.75A11.31,11.31,0,0,1,287,1333a29.38,29.38,0,0,1,5.88-.88h18.66l39.74.22.08-20.8-21.13-.12v-.21H286.73a39.92,39.92,0,0,0-15.3,2.69,26,26,0,0,0-10.91,8.43,39.27,39.27,0,0,0-6.58,14.57,72,72,0,0,0-1.72,10.56,88.63,88.63,0,0,0-.59,10.09,68.52,68.52,0,0,0,.44,8.13q3,34.67,34.66,34.68h43.52v-.27l20.78.11.08-21-55.2-.3a31.92,31.92,0,0,1-8.78-1.11,13.33,13.33,0,0,1-6-3.52,14.1,14.1,0,0,1-3.34-6.48,41.87,41.87,0,0,1-1-10.1,73.15,73.15,0,0,1,1-13.12A17.31,17.31,0,0,1,281.07,1336.75Z" transform="translate(-33 -1078.6)"/>
    <path class="cls-1" d="M576.6,1382.92q-4.09-4.65-6.54-7.31a57.67,57.67,0,0,0-4.44-4.38,24.49,24.49,0,0,0,8.59-3.65,25.22,25.22,0,0,0,6.43-6.31,28.71,28.71,0,0,0,4-8.37,33.83,33.83,0,0,0,1.4-9.83q0-9.56-3.8-15.68a29.4,29.4,0,0,0-9.64-9.7,38.9,38.9,0,0,0-13-5,71.86,71.86,0,0,0-13.79-1.39H479.15v88.88H504v-23.51H541.2l17.41,23.51H591Zm-19.28-30.82a16.25,16.25,0,0,1-9.46,2.66H503.34v-20.33h44.53q6.31,0,9.82,2.59t3.5,7.77A8.4,8.4,0,0,1,557.32,1352.1Z" transform="translate(-33 -1078.6)"/>
    <path class="cls-1" d="M628.63,1400.19h-24v-89h24Z" transform="translate(-33 -1078.6)"/>
    <path class="cls-1" d="M876.46,1311.23,830,1370.8v29.39H805.69v-29.52L758,1311.23h31.11L807.8,1336l2.46,3.12q1.52,1.93,3.16,4.06t3,4q1.4,1.86,2,2.79,1.17-1.86,3.39-5.05t6.43-9l17.78-24.6Z" transform="translate(-33 -1078.6)"/>
    <path class="cls-1" d="M174.07,1311.23H149.95v0h0v22.55h0v10.62h0v18.4h0v14.76h0v22.55h0v0h24.12v0h64.19v-22.55H174.07v-12l-.1-2.73h64.29v-18.4H174c0-.6.06-1.2.09-1.82v-8.8h64.19v-22.55H174.07Z" transform="translate(-33 -1078.6)"/>
    <path class="cls-1" d="M1432.5,1360.62q0,39.57-47.9,39.57a100.17,100.17,0,0,1-23.89-2.48,44.43,44.43,0,0,1-16.48-7.44,29.43,29.43,0,0,1-9.54-12.34,45.16,45.16,0,0,1-3-17.3v-49.24h23.66v49.24a24.61,24.61,0,0,0,1.15,8.09,10.22,10.22,0,0,0,4.31,5.29,22.89,22.89,0,0,0,8.9,2.87,105.74,105.74,0,0,0,14.93.85,60.24,60.24,0,0,0,11.49-.91,17.81,17.81,0,0,0,7.35-3,11.65,11.65,0,0,0,4-5.35,22.7,22.7,0,0,0,1.21-7.84v-49.24h23.89Z" transform="translate(-33 -1078.6)"/>
    <path class="cls-1" d="M1164.3,1311.08q27.68,0,41.57,10.7t13.89,33.79q0,23.21-13.84,33.91t-41.63,10.7q-27.9,0-41.68-10.7t-13.78-33.91q0-23.08,13.84-33.79T1164.3,1311.08Zm0,66.67a113,113,0,0,0,15-.84,24.3,24.3,0,0,0,9.93-3.29,13.91,13.91,0,0,0,5.5-6.77,38.26,38.26,0,0,0,0-22.57,13.58,13.58,0,0,0-5.5-6.71,25.05,25.05,0,0,0-9.93-3.22,134.23,134.23,0,0,0-29.94,0,25,25,0,0,0-9.93,3.22,13.57,13.57,0,0,0-5.5,6.71,38.26,38.26,0,0,0,0,22.57,13.89,13.89,0,0,0,5.5,6.77,24.29,24.29,0,0,0,9.93,3.29A113,113,0,0,0,1164.3,1377.75Z" transform="translate(-33 -1078.6)"/>
    <path class="cls-1" d="M1654.13,1311.08q27.68,0,41.57,10.7t13.89,33.79q0,23.21-13.84,33.91t-41.63,10.7q-27.9,0-41.68-10.7t-13.78-33.91q0-23.08,13.84-33.79T1654.13,1311.08Zm0,66.67a113,113,0,0,0,15-.84,24.3,24.3,0,0,0,9.93-3.29,13.91,13.91,0,0,0,5.5-6.77,38.26,38.26,0,0,0,0-22.57,13.58,13.58,0,0,0-5.5-6.71,25.05,25.05,0,0,0-9.93-3.22,134.23,134.23,0,0,0-29.94,0,25,25,0,0,0-9.93,3.22,13.57,13.57,0,0,0-5.5,6.71,38.26,38.26,0,0,0,0,22.57,13.89,13.89,0,0,0,5.5,6.77,24.29,24.29,0,0,0,9.93,3.29A113,113,0,0,0,1654.13,1377.75Z" transform="translate(-33 -1078.6)"/>
    <polygon class="cls-1" points="1285.11 297.78 1224.45 297.78 1224.45 232.55 1200.22 232.55 1200.22 321.59 1269.41 321.59 1269.44 321.54 1285.11 321.54 1285.11 297.78"/>
    <polygon class="cls-1" points="1490.78 232.61 1437.02 232.61 1412.89 232.61 1412.89 256.24 1437.02 256.24 1452.11 256.24 1452.11 321.59 1476.2 321.59 1476.2 256.24 1490.78 256.24 1514.91 256.24 1514.91 232.61 1490.78 232.61"/>
    <path class="cls-1" d="M1087.62,1352.88q-7.43-6.06-21.7-6.06h-42.24q-4.18,0-6.21-1.4t-2-4.86q0-3.46,2-4.79t6.21-1.33h71.61v-23.17h-69.76a50.58,50.58,0,0,0-15.14,2,27.71,27.71,0,0,0-10.33,5.59,21.8,21.8,0,0,0-5.92,8.72,32.32,32.32,0,0,0-1.91,11.38,30,30,0,0,0,1.74,10.45,20.39,20.39,0,0,0,5.34,8.05,25,25,0,0,0,9,5.19,40.25,40.25,0,0,0,13,1.87h42.24q4.29,0,6.27,1.46t2,4.93q0,3.46-2,5t-6.27,1.53H991.94v22.9h69.79a50.6,50.6,0,0,0,15.14-2,27.25,27.25,0,0,0,10.39-5.73,21.73,21.73,0,0,0,5.92-9.19,38,38,0,0,0,1.86-12.25Q1095,1358.94,1087.62,1352.88Z" transform="translate(-33 -1078.6)"/>
    <path class="cls-1" d="M1921.33,1352.88q-7.43-6.06-21.7-6.06h-42.24q-4.18,0-6.21-1.4t-2-4.86q0-3.46,2-4.79t6.21-1.33H1929v-23.17h-69.76a50.58,50.58,0,0,0-15.14,2,27.71,27.71,0,0,0-10.33,5.59,21.8,21.8,0,0,0-5.92,8.72,32.32,32.32,0,0,0-1.91,11.38,30,30,0,0,0,1.74,10.45,20.39,20.39,0,0,0,5.34,8.05,25,25,0,0,0,9,5.19,40.25,40.25,0,0,0,13,1.87h42.24q4.29,0,6.27,1.46t2,4.93q0,3.46-2,5t-6.27,1.53h-71.65v22.9h69.79a50.6,50.6,0,0,0,15.14-2,27.25,27.25,0,0,0,10.39-5.73,21.73,21.73,0,0,0,5.92-9.19,38,38,0,0,0,1.86-12.25Q1928.76,1358.94,1921.33,1352.88Z" transform="translate(-33 -1078.6)"/>
    <path class="cls-1" d="M1585.34,1400.19h-24v-89h24Z" transform="translate(-33 -1078.6)"/>
    <path class="cls-1" d="M1794.22,1311.8v25.09h0v26.72l-52.2-47.1a16.81,16.81,0,0,0-5.67-3.78,15.37,15.37,0,0,0-4.9-.83,16.56,16.56,0,0,0-5.41.9,12.17,12.17,0,0,0-4.58,2.81,13.94,13.94,0,0,0-3.18,5,19.82,19.82,0,0,0-1.21,7.3v43.45H1717v29H1741v-29H1741v-22.72l52.2,47.11a13.69,13.69,0,0,0,10.57,4.61,17.24,17.24,0,0,0,5.48-.89,11.69,11.69,0,0,0,4.65-2.88,14.75,14.75,0,0,0,3.19-5.06,20,20,0,0,0,1.21-7.29V1311.8Z" transform="translate(-33 -1078.6)"/>
    <path class="cls-2" d="M1358.65,1254.72H1304.3V1079.08h54.34Z" transform="translate(-33 -1078.6)"/>
    <polygon class="cls-2" points="1537.97 1.07 1417.7 1.07 1363.74 1.07 1363.74 47.55 1417.7 47.55 1451.45 47.55 1451.45 176.12 1505.36 176.12 1505.36 47.55 1537.97 47.55 1591.93 47.55 1591.93 1.07 1537.97 1.07"/>
    <path class="cls-2" d="M249.45,1161.13q-16.81-11.94-49.1-11.95H104.78q-9.45,0-14-2.76t-4.59-9.58q0-6.82,4.59-9.45t14-2.63h162v-45.68H109q-20,0-34.26,3.94t-23.37,11A43.27,43.27,0,0,0,38,1111.24a56.42,56.42,0,0,0-4.33,22.45,52.43,52.43,0,0,0,3.94,20.61,40.29,40.29,0,0,0,12.08,15.88,58.94,58.94,0,0,0,20.47,10.24q12.34,3.68,29.41,3.68H195.1q9.71,0,14.18,2.89t4.46,9.71q0,6.83-4.46,9.84t-14.18,3H33v45.16H190.9q20,0,34.26-3.94t23.5-11.29a42.74,42.74,0,0,0,13.39-18.11,66.05,66.05,0,0,0,4.2-24.15Q266.25,1173.07,249.45,1161.13Z" transform="translate(-33 -1078.6)"/>
    <path class="cls-2" d="M1929,1079.3l-104.1,117.47v57.95h-54.54v-58.21l-107-117.21h69.75l42,48.77q2.1,2.36,5.51,6.16t7.08,8q3.67,4.2,6.82,7.87t4.46,5.51q2.62-3.67,7.6-10t14.42-17.83l39.86-48.51Z" transform="translate(-33 -1078.6)"/>
    <path class="cls-2" d="M759.21,1220.49q-9.22-9.21-14.74-14.48a123.75,123.75,0,0,0-10-8.69,59.38,59.38,0,0,0,19.35-7.24A53.46,53.46,0,0,0,777.37,1161a59.57,59.57,0,0,0,3.16-19.48q0-19-8.56-31.07a62.81,62.81,0,0,0-21.71-19.22,95.16,95.16,0,0,0-29.22-9.87A183.34,183.34,0,0,0,690,1078.6H539.64v176.12h56.08v-46.59h83.71l39.22,46.59h72.93Zm-43.44-61.08q-8.69,5.28-21.32,5.27H594.14v-40.28H694.45q14.22,0,22.11,5.14t7.89,15.4Q724.46,1154.16,715.77,1159.42Z" transform="translate(-33 -1078.6)"/>
    <path class="cls-2" d="M358.28,1079.3H304.21v.09h0v44.46h0v20.94h0v36.28h0v29.11h0v44.46h0v.08h54.07v-.08h143.9v-44.46H358.28v-23.73q-.12-2.73-.23-5.39H502.18v-36.28H358.09c.07-1.18.13-2.37.19-3.59v-17.35h143.9v-44.46H358.28Z" transform="translate(-33 -1078.6)"/>
    <path class="cls-2" d="M883.53,1079.3H829.46v.09h0v44.46h0v20.94h0v36.28h0v29.11h0v44.46h0v.08h54.07v-.08h143.9v-44.46H883.53v-23.73q-.12-2.73-.23-5.39h144.13v-36.28H883.33c.07-1.18.13-2.37.19-3.59v-17.35h143.9v-44.46H883.53Z" transform="translate(-33 -1078.6)"/>
    <path class="cls-2" d="M1218.14,1079.54v49.64h0V1182l-103.28-93.2q-6.29-5.82-11.21-7.47a30.42,30.42,0,0,0-9.7-1.65,32.76,32.76,0,0,0-10.71,1.78,24.08,24.08,0,0,0-9.07,5.57,27.58,27.58,0,0,0-6.3,9.88,39.22,39.22,0,0,0-2.39,14.44v86h-.15v57.38h47.61v-57.38h-.1V1152.4l103.28,93.21q6.06,5.82,11,7.47a31.1,31.1,0,0,0,10,1.64,34.11,34.11,0,0,0,10.83-1.77,23.14,23.14,0,0,0,9.19-5.7,29.18,29.18,0,0,0,6.31-10,39.57,39.57,0,0,0,2.39-14.43V1079.54Z" transform="translate(-33 -1078.6)"/>
</svg>